<?xml version="1.0" encoding="UTF-8"?>
<svg version="1.1" xmlns="http://www.w3.org/2000/svg" width="1620" height="800">
<path d="M0 0 C534.6 0 1069.2 0 1620 0 C1620 264 1620 528 1620 800 C1085.4 800 550.8 800 0 800 C0 536 0 272 0 0 Z " fill="#FFF3C4" transform="translate(0,0)"/>
<path d="M0 0 C1.19323883 -0.00200912 1.19323883 -0.00200912 2.4105835 -0.00405884 C15.844864 0.00079737 28.97907368 0.86197358 42.28076172 2.84863281 C44.75849426 3.21435308 47.23654874 3.53359458 49.72265625 3.8359375 C114.66312357 12.24224187 177.57845997 44.40771494 225.2109375 88.68359375 C227.53810845 90.82498215 229.90058615 92.89342629 232.3125 94.9375 C235.63144667 97.81072036 238.4587184 100.94688989 241.29296875 104.29296875 C242.91260807 106.14980925 244.60123291 107.85397492 246.375 109.5625 C250.99374281 114.11965957 254.95869192 119.18376948 259 124.25 C259.83402344 125.26707031 260.66804688 126.28414063 261.52734375 127.33203125 C306.84649352 183.07315319 332.2081099 254.62633479 334 326.25 C334.03254883 327.25998047 334.06509766 328.26996094 334.09863281 329.31054688 C334.90947308 356.97739954 332.37803764 384.77975469 325.63232422 411.66064453 C325.18080269 413.50961648 324.75852659 415.36583049 324.35595703 417.22607422 C322.47907845 425.85708149 319.89402684 434.16634443 317 442.5 C316.76112061 443.19187408 316.52224121 443.88374817 316.27612305 444.59658813 C304.43154276 478.75442857 287.96646103 510.51305441 266 539.25 C265.55301758 539.84119629 265.10603516 540.43239258 264.64550781 541.04150391 C258.72100376 548.86193457 252.45019155 556.20738482 245.71875 563.34375 C243.49225344 565.72379805 241.35426882 568.13813685 239.25 570.625 C236.40015382 573.92445783 233.28024895 576.72808263 229.95703125 579.54296875 C228.10019075 581.16260807 226.39602508 582.85123291 224.6875 584.625 C220.13071477 589.24336341 215.06837976 593.21204052 210 597.25 C208.90213368 598.13906358 207.80448347 599.02839406 206.70703125 599.91796875 C198.46201268 606.552338 189.91620289 612.55407959 181 618.25 C179.41445312 619.26513672 179.41445312 619.26513672 177.796875 620.30078125 C155.26734014 634.42419569 131.88324904 645.72143651 106.71582031 654.31738281 C104.45532448 655.09364082 102.20633468 655.89241258 99.9609375 656.7109375 C82.8036191 662.79152212 64.95239563 666.30984388 47 669.0625 C45.98936493 669.22020874 45.98936493 669.22020874 44.95831299 669.38110352 C28.55972729 671.91081908 12.19817381 672.46057855 -4.375 672.4375 C-5.18659576 672.43689575 -5.99819153 672.4362915 -6.8343811 672.43566895 C-17.84384176 672.41347982 -28.71689905 672.25660907 -39.62304688 670.60498047 C-42.38515771 670.19247953 -45.15266542 669.83437219 -47.921875 669.47265625 C-104.05162153 661.82674995 -160.48882661 639.74299065 -205 604.25 C-206.09594362 603.41571418 -207.19370267 602.58380946 -208.29296875 601.75390625 C-216.14491936 595.77790076 -223.3928281 589.32440624 -230.52734375 582.51171875 C-232.86398538 580.28500954 -235.25491702 578.15846762 -237.72265625 576.078125 C-240.20822035 573.97159121 -242.41558385 571.82762459 -244.5 569.3125 C-246.69582753 566.72630313 -248.9317133 564.29071162 -251.375 561.9375 C-293.71020396 520.1680226 -319.53609193 459.34007312 -332 402.25 C-332.16338867 401.53005859 -332.32677734 400.81011719 -332.49511719 400.06835938 C-333.52739183 395.48923547 -334.32903654 390.89372268 -335 386.25 C-335.13535156 385.32558105 -335.27070313 384.40116211 -335.41015625 383.44873047 C-341.27111176 341.42541549 -338.70600081 299.44764222 -329 258.25 C-328.66638576 256.7607704 -328.33412147 255.27123697 -328.00390625 253.78125 C-315.30449455 199.14555877 -286.51678456 148.92422635 -248.5625 108.03515625 C-246.2658475 105.53894705 -244.03329601 103.0009579 -241.8125 100.4375 C-238.83645208 97.0774459 -235.7158133 94.11909521 -232.28515625 91.23046875 C-230.06084209 89.30272981 -227.9434137 87.28579622 -225.8215332 85.24682617 C-212.58758306 72.64198722 -197.42169974 62.00894405 -182 52.25 C-181.43104004 51.88777344 -180.86208008 51.52554688 -180.27587891 51.15234375 C-126.11406422 16.93519957 -63.83215429 0.0648102 0 0 Z " fill="#FEEDA3" transform="translate(812,63.75)"/>
<path d="M0 0 C24.33116595 4.16011238 48.5614774 24.49519357 66 41 C67.39798828 42.30130859 67.39798828 42.30130859 68.82421875 43.62890625 C96.99290009 70.41353697 118.61273594 109.91209347 120.12451172 149.23901367 C120.97173036 186.78237638 112.45472392 219.65670244 86.33984375 247.69921875 C82.15780901 251.81143655 77.64525806 255.42822595 73 259 C72.18273437 259.65613281 71.36546875 260.31226563 70.5234375 260.98828125 C44.38048277 281.18229736 10.5462974 290.44860971 -22.125 290.25 C-23.40503906 290.25773437 -24.68507813 290.26546875 -26.00390625 290.2734375 C-33.56517434 290.25795896 -40.62913865 289.69066121 -48 288 C-48.680625 287.84869629 -49.36125 287.69739258 -50.0625 287.54150391 C-63.53332098 284.40229641 -75.22810636 279.24263669 -87 272 C-84.32047673 267.15624641 -81.41530469 262.5710235 -78.26953125 258.015625 C-75.69152704 253.92254754 -75.30346413 249.70897492 -76 245 C-77.5 242.83333333 -77.5 242.83333333 -80 242 C-83.16732421 241.74913276 -83.16732421 241.74913276 -86 242 C-86.268125 241.05125 -86.53625 240.1025 -86.8125 239.125 C-87.74986588 235.74732727 -87.74986588 235.74732727 -91 234 C-94.54223486 234.31627097 -97.62644274 234.87548091 -101 236 C-101.309375 234.865625 -101.61875 233.73125 -101.9375 232.5625 C-102.62924531 229.21224901 -102.62924531 229.21224901 -104 228 C-107.03737066 227.62744346 -108.53658006 227.69162444 -111.11328125 229.40625 C-111.83902344 230.0971875 -112.56476563 230.788125 -113.3125 231.5 C-114.17875 232.3146875 -115.045 233.129375 -115.9375 233.96875 C-118.24419906 236.2261079 -120.49986887 238.53010711 -122.75 240.84375 C-136.57548192 255.02774515 -151.21056492 267.86975257 -172.12744141 268.2421875 C-191.326574 268.30711798 -208.59461398 263.12118494 -223 250 C-224.15242187 248.96746094 -224.15242187 248.96746094 -225.328125 247.9140625 C-236.81407825 237.07466953 -241.97970036 224.4524358 -242.47265625 208.77563477 C-242.55938157 199.57578189 -242.08319538 191.40732465 -238 183 C-237.56429687 182.07316406 -237.12859375 181.14632812 -236.6796875 180.19140625 C-232.85052577 172.64816689 -227.92586599 165.77811834 -221.8203125 159.90234375 C-219.77439156 158.03550889 -219.77439156 158.03550889 -219 155 C-219.928125 155.7425 -219.928125 155.7425 -220.875 156.5 C-223 158 -223 158 -225 158 C-225.26425781 158.58007812 -225.52851562 159.16015625 -225.80078125 159.7578125 C-227.04909202 162.09178768 -228.47527282 163.86107604 -230.1875 165.875 C-239.62763567 177.83776066 -244.59607365 191.56914737 -244.5 206.75 C-244.49141968 208.33107544 -244.49141968 208.33107544 -244.48266602 209.9440918 C-244.12824211 225.47310971 -237.92583918 238.01583643 -227.25 249.25 C-212.37078791 263.39195383 -194.07361185 269.54981511 -174 271 C-173.84144531 272.16015625 -173.68289063 273.3203125 -173.51953125 274.515625 C-171.55184074 288.03135327 -168.02390751 298.79525958 -160 310 C-158.66169843 311.99667891 -157.32739865 313.99605624 -156 316 C-191.21735434 329.77088856 -232.07122323 328.54423563 -266.78759766 313.86181641 C-298.13337901 300.01442999 -321.58972208 277.16912362 -334.5 245.296875 C-344.1337283 219.26287113 -345.82899755 187.82452449 -338 161 C-337.78037598 160.2373584 -337.56075195 159.4747168 -337.33447266 158.68896484 C-326.57096096 122.28498578 -304.94031235 89.43642428 -275 66 C-274.17218018 65.3495874 -274.17218018 65.3495874 -273.32763672 64.68603516 C-255.39227196 50.71166975 -220.64713185 27.32871409 -196.875 29.1640625 C-194.34049864 30.29402769 -192.53509513 31.87327027 -190.4375 33.6875 C-185.28362094 37.95039549 -179.94442722 40.95157578 -174 44 C-174 51.59 -174 59.18 -174 67 C-181 66 -181 66 -184.25 64.4375 C-189.63353692 61.99373717 -195.71960504 62.03228349 -201.34375 63.69140625 C-206.07194143 65.79968564 -208.53084329 68.35798539 -211 73 C-213.09742046 79.29226137 -211.99549487 84.17177762 -209.21484375 89.98046875 C-207.16524097 93.38768624 -204.49441752 95.25279124 -201 97 C-193.53872367 97.92114523 -188.12614109 96.65862018 -181.5078125 93.19140625 C-178.97419302 91.98773967 -176.74527082 91.4985421 -174 91 C-173.97812622 92.90676514 -173.97812622 92.90676514 -173.95581055 94.85205078 C-173.89770193 99.58231292 -173.82046952 104.3121053 -173.73754883 109.04199219 C-173.70435859 111.0865108 -173.67630837 113.13111974 -173.65356445 115.17578125 C-173.61991007 118.12018206 -173.56758834 121.06375954 -173.51171875 124.0078125 C-173.50213387 125.3722197 -173.50213387 125.3722197 -173.49235535 126.76419067 C-173.37546986 131.84512633 -173.06470887 135.73806945 -170 140 C-164.98688743 143.60487586 -159.95001158 143.46997513 -154.0078125 143.51171875 C-153.06187225 143.52966995 -152.11593201 143.54762115 -151.1413269 143.56611633 C-148.13592921 143.62006637 -145.13068896 143.65406604 -142.125 143.6875 C-140.08070733 143.72068657 -138.0364354 143.75517747 -135.9921875 143.79101562 C-130.99490552 143.87578415 -125.99766901 143.94266839 -121 144 C-121 143.01 -121 142.02 -121 141 C-122.27117676 141.02618408 -123.54235352 141.05236816 -124.85205078 141.0793457 C-129.58185122 141.17005196 -134.31157524 141.22732374 -139.04199219 141.2746582 C-141.08672019 141.29975583 -143.13135889 141.33384164 -145.17578125 141.37719727 C-148.12001611 141.43805815 -151.06306196 141.4662573 -154.0078125 141.48828125 C-154.9174173 141.51408768 -155.82702209 141.5398941 -156.76419067 141.56648254 C-161.1072466 141.56838875 -164.08230057 141.41283562 -167.56201172 138.65698242 C-170.68609231 135.25227893 -171.12598909 132.97810365 -171.11352539 128.52856445 C-171.11344986 127.62785721 -171.11337433 126.72714996 -171.11329651 125.79914856 C-171.10813522 124.83031235 -171.10297394 123.86147614 -171.09765625 122.86328125 C-171.09553383 121.37141548 -171.09553383 121.37141548 -171.09336853 119.84941101 C-171.08776761 116.67041018 -171.07521496 113.49147957 -171.0625 110.3125 C-171.05748512 108.15820414 -171.05292219 106.00390718 -171.04882812 103.84960938 C-171.03779788 98.56638226 -171.02105886 93.28319615 -171 88 C-173.09090222 88.62668761 -175.18049877 89.25773265 -177.26953125 89.890625 C-178.43331299 90.24157227 -179.59709473 90.59251953 -180.79614258 90.95410156 C-183.24688399 91.75414547 -185.40045068 92.59774092 -187.6875 93.75 C-192.21586214 95.4588159 -196.22167681 95.82792729 -201 95 C-204.89102883 93.16844877 -206.8021228 90.35617896 -208.875 86.625 C-210.08677983 82.72037611 -210.51630321 80.0566681 -210 76 C-207.2055618 70.72161673 -203.73406618 66.91135539 -198 65 C-190.74615559 64.29801506 -185.69382483 65.97761774 -179.015625 68.80859375 C-176.30371881 69.88000747 -173.85281297 70.47481485 -171 71 C-171.02094727 69.69853027 -171.04189453 68.39706055 -171.06347656 67.05615234 C-171.13603193 62.21446797 -171.18185647 57.3728314 -171.21972656 52.53076172 C-171.23980659 50.43758047 -171.2670764 48.34445508 -171.30175781 46.25146484 C-171.35043434 43.23781531 -171.37300512 40.22490927 -171.390625 37.2109375 C-171.41127014 36.27945892 -171.43191528 35.34798035 -171.45318604 34.38827515 C-171.45516803 28.61228693 -170.82273021 25.41186785 -167 21 C-164.27521848 19.63760924 -162.13159145 19.88030042 -159.08154297 19.88647461 C-157.21983963 19.88658791 -157.21983963 19.88658791 -155.32052612 19.88670349 C-153.96107951 19.8918105 -152.60163331 19.8970265 -151.2421875 19.90234375 C-149.85499116 19.90420858 -148.46779416 19.90563218 -147.08059692 19.90663147 C-143.42765488 19.91045152 -139.77475252 19.92027745 -136.12182617 19.93133545 C-132.39502499 19.94156056 -128.66821741 19.94613145 -124.94140625 19.95117188 C-117.62758606 19.96190017 -110.31379859 19.97897046 -103 20 C-103.45052734 21.19496094 -103.45052734 21.19496094 -103.91015625 22.4140625 C-104.29042969 23.47367187 -104.67070313 24.53328125 -105.0625 25.625 C-105.44535156 26.66914063 -105.82820312 27.71328125 -106.22265625 28.7890625 C-107.273813 33.13102655 -106.74790605 36.32821001 -104.9375 40.375 C-101.82699788 42.98380823 -98.96417327 42.25994579 -95 42 C-94.79375 42.639375 -94.5875 43.27875 -94.375 43.9375 C-93.11785467 46.28047585 -93.11785467 46.28047585 -90.1875 46.9375 C-85.03048356 47.03861797 -82.81738106 44.78105302 -79.1875 41.3125 C-78.1046875 40.1678125 -78.1046875 40.1678125 -77 39 C-77.03480469 40.03060547 -77.03480469 40.03060547 -77.0703125 41.08203125 C-77.08835937 41.98308594 -77.10640625 42.88414062 -77.125 43.8125 C-77.15980469 45.15248047 -77.15980469 45.15248047 -77.1953125 46.51953125 C-77.18285827 49.25402714 -77.18285827 49.25402714 -75 52 C-70.82339427 52.26518132 -67.95659266 52.31886422 -64 51 C-62.99083967 49.23408113 -62.99083967 49.23408113 -62 47 C-59.28359097 42.3432988 -56.73956986 39.62188971 -52 37 C-51.01 37 -50.02 37 -49 37 C-48.93050505 49.43045592 -48.87719118 61.86086566 -48.84456348 74.29147625 C-48.82890423 80.06344652 -48.80766097 85.83528393 -48.77368164 91.60717773 C-48.74109783 97.1768455 -48.72314894 102.74638541 -48.71536827 108.31614113 C-48.70982304 110.44162827 -48.69899464 112.56710837 -48.68280983 114.69254112 C-48.66104884 117.66847254 -48.65803255 120.64387493 -48.65942383 123.61987305 C-48.64324509 124.93941483 -48.64324509 124.93941483 -48.6267395 126.28561401 C-48.65075699 131.02990375 -48.93111418 134.13981892 -52 138 C-56.38973983 141.7325232 -60.76283712 141.39281155 -66.23828125 141.29296875 C-67.11904831 141.28872391 -67.99981537 141.28447906 -68.90727234 141.28010559 C-71.7093311 141.26336644 -74.51066009 141.2257233 -77.3125 141.1875 C-79.21678646 141.17244699 -81.12108424 141.15875966 -83.02539062 141.14648438 C-87.68387322 141.11347854 -92.34181305 141.06172929 -97 141 C-97 141.99 -97 142.98 -97 144 C-91.27040883 143.93098256 -85.54153764 143.84294695 -79.8125 143.73754883 C-77.86499032 143.70436735 -75.91738603 143.67631443 -73.96972656 143.65356445 C-71.16430485 143.61989366 -68.35974472 143.56757173 -65.5546875 143.51171875 C-64.25590164 143.50213387 -64.25590164 143.50213387 -62.93087769 143.49235535 C-57.94864824 143.37214652 -54.18998163 142.981166 -50 140 C-46.64026702 134.82931064 -46.55797332 130.37084528 -46.56762695 124.41455078 C-46.5574353 123.46757828 -46.54724365 122.52060577 -46.53674316 121.54493713 C-46.5066531 118.42833509 -46.49735318 115.31204062 -46.48828125 112.1953125 C-46.47143164 110.02911358 -46.45328102 107.86292443 -46.43388367 105.69674683 C-46.3864084 100.00536143 -46.35658288 94.31401561 -46.33044434 88.62249756 C-46.30062647 82.8107522 -46.25410029 76.99914317 -46.20898438 71.1875 C-46.12297929 59.79173802 -46.05562143 48.39594795 -46 37 C-44.56733444 36.98483447 -43.13462212 36.97404579 -41.7019043 36.96508789 C-40.90407028 36.95860733 -40.10623627 36.95212677 -39.28422546 36.94544983 C-23.85266704 37.31397481 -9.12881923 49.41147641 1 60 C22.01720748 83.52768555 30.50809599 112.93574663 29 144 C28.32320332 153.74372359 24.84947104 162.13895344 21 171 C21.99 171 22.98 171 24 171 C34.4958473 142.66121229 33.16325477 114.55719153 21 87 C13.01288392 70.04736516 1.23542032 53.82670177 -15 44 C-14.39929493 40.47480975 -13.04503562 38.57915067 -10.75 35.875 C-3.63390111 27.00183966 -1.04510786 18.83361801 -0.4375 7.6875 C-0.39431641 6.94693359 -0.35113281 6.20636719 -0.30664062 5.44335938 C-0.20129568 3.62908536 -0.10021684 1.8145645 0 0 Z " fill="#FEFEFE" transform="translate(921,295)"/>
<path d="M0 0 C1.56670274 1.17013984 3.08350221 2.40830093 4.5625 3.6875 C9.71637906 7.95039549 15.05557278 10.95157578 21 14 C21 21.59 21 29.18 21 37 C14 36 14 36 10.75 34.4375 C5.36646308 31.99373717 -0.71960504 32.03228349 -6.34375 33.69140625 C-11.07194143 35.79968564 -13.53084329 38.35798539 -16 43 C-18.09742046 49.29226137 -16.99549487 54.17177762 -14.21484375 59.98046875 C-12.16524097 63.38768624 -9.49441752 65.25279124 -6 67 C1.46127633 67.92114523 6.87385891 66.65862018 13.4921875 63.19140625 C16.02580698 61.98773967 18.25472918 61.4985421 21 61 C21.02187378 62.90676514 21.02187378 62.90676514 21.04418945 64.85205078 C21.10229807 69.58231292 21.17953048 74.3121053 21.26245117 79.04199219 C21.29564141 81.0865108 21.32369163 83.13111974 21.34643555 85.17578125 C21.38008993 88.12018206 21.43241166 91.06375954 21.48828125 94.0078125 C21.49786613 95.3722197 21.49786613 95.3722197 21.50764465 96.76419067 C21.62554421 101.88920719 22.0968397 105.59045433 25 110 C27.58443323 111.73490246 27.58443323 111.73490246 30 113 C30 113.66 30 114.32 30 115 C29.236875 115.4125 28.47375 115.825 27.6875 116.25 C24.20510633 118.51760518 23.48815454 120.11104941 22 124 C21.60730702 127.4100988 21.65003544 130.78218076 21.70703125 134.2109375 C21.71127609 135.17907379 21.71552094 136.14721008 21.71989441 137.14468384 C21.73662044 140.22174473 21.77426169 143.29813872 21.8125 146.375 C21.82755468 148.46743842 21.84124171 150.55988717 21.85351562 152.65234375 C21.88650412 157.76848418 21.93824472 162.88412921 22 168 C25.32169888 167.38867148 27.70008292 166.72410932 30.5625 164.9375 C35.84224619 162.21246971 41.19441903 162.04599301 47 163 C50.97685648 164.93489364 53.35628315 167.93473602 55 172 C55.6773018 177.21364875 55.63590295 181.65482068 53.375 186.4375 C49.11924337 191.02923742 46.01000782 193.23509045 39.6875 193.5 C34.80527001 193.34014527 31.16826445 192.14790471 26.875 189.875 C24.89176146 188.78855727 24.89176146 188.78855727 22 189 C21.92567346 195.01397009 21.87131412 201.02767096 21.83520508 207.04199219 C21.82014712 209.08663594 21.79969643 211.13124755 21.77368164 213.17578125 C21.73716689 216.11987252 21.72024349 219.06353557 21.70703125 222.0078125 C21.68380547 223.3722197 21.68380547 223.3722197 21.66011047 224.76419067 C21.65874157 229.96231958 22.16727788 233.45849625 25 238 C5.0204001 238.81983161 -13.0476356 233.61940169 -28 220 C-29.15242187 218.96746094 -29.15242187 218.96746094 -30.328125 217.9140625 C-41.81407825 207.07466953 -46.97970036 194.4524358 -47.47265625 178.77563477 C-47.55938157 169.57578189 -47.08319538 161.40732465 -43 153 C-42.56429687 152.07316406 -42.12859375 151.14632812 -41.6796875 150.19140625 C-37.85052577 142.64816689 -32.92586599 135.77811834 -26.8203125 129.90234375 C-24.77439156 128.03550889 -24.77439156 128.03550889 -24 125 C-24.61875 125.495 -25.2375 125.99 -25.875 126.5 C-28 128 -28 128 -30 128 C-30.26425781 128.58007812 -30.52851562 129.16015625 -30.80078125 129.7578125 C-32.04909202 132.09178768 -33.47527282 133.86107604 -35.1875 135.875 C-44.62763567 147.83776066 -49.59607365 161.56914737 -49.5 176.75 C-49.49141968 178.33107544 -49.49141968 178.33107544 -49.48266602 179.9440918 C-49.12824211 195.47310971 -42.92583918 208.01583643 -32.25 219.25 C-17.37078791 233.39195383 0.92638815 239.54981511 21 241 C21.15855469 242.16015625 21.31710937 243.3203125 21.48046875 244.515625 C23.44815926 258.03135327 26.97609249 268.79525958 35 280 C36.33830157 281.99667891 37.67260135 283.99605624 39 286 C3.78264566 299.77088856 -37.07122323 298.54423563 -71.78759766 283.86181641 C-103.13337901 270.01442999 -126.58972208 247.16912362 -139.5 215.296875 C-149.1337283 189.26287113 -150.82899755 157.82452449 -143 131 C-142.78037598 130.2373584 -142.56075195 129.4747168 -142.33447266 128.68896484 C-131.57096096 92.28498578 -109.94031235 59.43642428 -80 36 C-79.17218018 35.3495874 -79.17218018 35.3495874 -78.32763672 34.68603516 C-64.04828801 23.56025994 -18.60298474 -8.2938307 0 0 Z " fill="#FEFEFE" transform="translate(726,325)"/>
<path d="M0 0 C0.9075 0.763125 1.815 1.52625 2.75 2.3125 C4.93200344 4.31977462 4.93200344 4.31977462 8 3.875 C10.9242482 3.09960208 10.9242482 3.09960208 13.265625 1.96875 C19.92883399 -0.39192976 28.38315745 -0.06600571 34.9375 2.5625 C42.87218073 6.78745987 48.19228919 13.50009424 51 22 C52.35691793 28.57215952 53 35.29610502 53 42 C53.59683594 42.25523437 54.19367188 42.51046875 54.80859375 42.7734375 C60.16652468 45.77235071 63.66215305 52.15657102 65.52734375 57.875 C67.17827094 65.29735032 65.99463313 71.12288841 62.875 77.96875 C61.86812537 79.93752145 61.86812537 79.93752145 62 82 C63.03125 82.45375 64.0625 82.9075 65.125 83.375 C70.91503557 86.6701422 74.05305891 92.75334485 75.875 99 C75.936875 100.485 75.936875 100.485 76 102 C76.04898437 102.77214844 76.09796875 103.54429687 76.1484375 104.33984375 C76.42407562 111.3898188 75.30888769 116.33589882 70.5625 121.8125 C65.89152383 125.79991868 63.20122187 126.23850853 57 126 C56.67 128.31 56.34 130.62 56 133 C56.54857666 132.83918945 57.09715332 132.67837891 57.66235352 132.51269531 C70.2367138 129.75487217 85.81202701 131.08364303 98 135 C99.03382813 135.2784375 100.06765625 135.556875 101.1328125 135.84375 C109.17181818 138.09079737 116.58045829 141.36061202 124.04101562 145.03808594 C126.02535269 146.01244885 128.01942563 146.96427355 130.015625 147.9140625 C148.66647159 156.88726455 165.06400256 168.65070892 180 183 C180.57041016 183.54317871 181.14082031 184.08635742 181.72851562 184.64599609 C210.62522838 212.28735985 234.06343617 251.9761702 235.26449585 292.83477783 C235.32647242 296.2861793 235.33098275 299.73567263 235.3125 303.1875 C235.31034485 303.91300049 235.3081897 304.63850098 235.30596924 305.38598633 C235.14394512 339.4129236 223.34405929 369.94929314 199.625 394.8125 C180.55240668 412.79132452 157.94145045 424.43944847 133 432 C132.05382812 432.29777344 131.10765625 432.59554688 130.1328125 432.90234375 C108.22191557 439.14043197 82.04251298 439.36101843 60 434 C58.98421875 433.79503906 57.9684375 433.59007812 56.921875 433.37890625 C44.95195734 430.80249349 33.45101856 425.29964175 23 419 C22.27296875 419.82242187 21.5459375 420.64484375 20.796875 421.4921875 C-2.77226596 447.80993943 -35.2079595 464.31112548 -70 470 C-70.67305176 470.11569336 -71.34610352 470.23138672 -72.03955078 470.35058594 C-109.74902642 476.66830569 -150.50428287 468.0853674 -181.98828125 446.265625 C-190.70585073 439.70766093 -199.3529069 432.70998406 -206 424 C-206.77730469 422.99710938 -207.55460938 421.99421875 -208.35546875 420.9609375 C-216.6143324 410.02646722 -222.62714797 398.29852478 -227.3125 385.4375 C-227.54291992 384.81447998 -227.77333984 384.19145996 -228.01074219 383.54956055 C-232.53060758 370.44294646 -233.54988922 357.54698972 -233.4375 343.8125 C-233.43379395 342.99818512 -233.43008789 342.18387024 -233.42626953 341.34487915 C-233.34524895 328.82397659 -232.63035797 317.05327577 -229 305 C-228.73155273 304.07010254 -228.46310547 303.14020508 -228.18652344 302.18212891 C-219.25986207 271.7494301 -203.57108599 246.13313014 -182 223 C-180.97132813 221.89011719 -180.97132813 221.89011719 -179.921875 220.7578125 C-170.15247104 210.59039578 -158.7160308 202.35259819 -146.70605469 195.04101562 C-145.07844618 194.04786699 -143.46459523 193.0322759 -141.8515625 192.015625 C-128.09799497 183.69022093 -112.96616461 177.49948309 -97.46777344 173.3190918 C-87.11039141 170.87716562 -87.11039141 170.87716562 -79.3125 164.125 C-77.98477758 161.55484051 -77.98477758 161.55484051 -77 159 C-76.61714844 158.34902344 -76.23429688 157.69804687 -75.83984375 157.02734375 C-71.55036026 149.29397388 -71.15806646 139.62408586 -70 131 C-71.25425781 131.02835938 -72.50851562 131.05671875 -73.80078125 131.0859375 C-78.3620045 131.18906896 -80.58212219 130.19001929 -84 127 C-88.98254927 120.03231896 -90.00985605 113.40067068 -89 105 C-87.30748206 95.943091 -83.54244499 89.3874607 -76 84 C-76.598125 83.484375 -77.19625 82.96875 -77.8125 82.4375 C-81.3764123 78.46628344 -83.15108092 74.26066728 -83.375 68.9375 C-82.80978259 63.00271716 -80.92412716 59.63377217 -76.625 55.625 C-74.17868873 53.63055515 -73.27026511 53.03450193 -70.0625 52.625 C-69.381875 52.74875 -68.70125 52.8725 -68 53 C-68.2165625 52.47792969 -68.433125 51.95585937 -68.65625 51.41796875 C-71.31728005 44.38348654 -72.48713569 37.5869874 -70.12109375 30.2890625 C-66.84530353 23.08881074 -62.37160987 18.23495459 -55.0625 15.125 C-50.9645187 13.75365988 -47.2918483 13.77007956 -43 14 C-42.6596875 12.948125 -42.6596875 12.948125 -42.3125 11.875 C-38.90889616 4.41948683 -33.25485918 0.48006526 -26 -3 C-16.85461389 -5.38325603 -8.30722382 -4.48590086 0 0 Z M112 144 C111.96261719 145.05058594 111.92523437 146.10117187 111.88671875 147.18359375 C111.31778323 160.36655265 109.00056544 173.62853885 98.71484375 183.10546875 C96.78545989 184.82489569 96.78545989 184.82489569 96.94140625 187.02734375 C98.42393038 189.78998097 100.31489658 190.859463 102.9375 192.5625 C124.33892695 207.60432979 137.68126447 234.70654496 142.37280273 260.01074219 C145.01770961 278.8791704 142.58935925 297.20873003 136 315 C135.01 315 134.02 315 133 315 C133.40992188 314.05640625 133.81984375 313.1128125 134.2421875 312.140625 C144.02448538 289.10479384 143.61927484 263.4154877 134.61035156 240.08203125 C129.6796382 228.00681486 123.69170215 216.78714395 115 207 C114.43796875 206.30777344 113.8759375 205.61554688 113.296875 204.90234375 C103.54457608 193.07654202 90.14179322 183.98274026 75 181 C73.43033286 180.95570299 71.8595252 180.94330245 70.28930664 180.95849609 C69.48441299 180.96448822 68.67951935 180.97048035 67.85023499 180.97665405 C67.23965744 180.98435822 66.6290799 180.99206238 66 181 C65.99413376 182.20189972 65.98826752 183.40379944 65.98222351 184.64212036 C65.92499748 195.97181461 65.85223625 207.30131689 65.76428509 218.63081551 C65.71956777 224.45536031 65.68031444 230.27983495 65.65356445 236.10449219 C65.62754536 241.72616769 65.58715235 247.34757337 65.53681374 252.96908188 C65.52013568 255.11322548 65.50862726 257.25741576 65.50238609 259.40161514 C65.49275544 262.40621441 65.46470776 265.41012189 65.43237305 268.41455078 C65.43380814 269.30000076 65.43524323 270.18545074 65.4367218 271.09773254 C65.36024924 276.12603353 64.82045317 279.65927195 62 284 C57.07226282 287.50607804 52.27005435 287.46873285 46.4453125 287.51171875 C45.54376434 287.52966995 44.64221619 287.54762115 43.71334839 287.56611633 C40.85061232 287.6200415 37.98804129 287.65405775 35.125 287.6875 C33.17706046 287.7206888 31.22914264 287.7551799 29.28125 287.79101562 C24.52095274 287.87575772 19.76070292 287.94265359 15 288 C15 287.01 15 286.02 15 285 C16.778302 285.02356567 16.778302 285.02356567 18.5925293 285.04760742 C23.000012 285.10199565 27.40746515 285.13638246 31.81518555 285.16479492 C33.72116081 285.17986128 35.62710152 285.20031824 37.53295898 285.22631836 C40.27596576 285.26279642 43.01851328 285.27974792 45.76171875 285.29296875 C46.61086349 285.30845261 47.46000824 285.32393646 48.33488464 285.33988953 C53.02899511 285.34121834 56.27119737 285.17053922 60 282 C63.64887078 277.41028806 63.4092262 273.21898452 63.34057617 267.61987305 C63.34123329 266.21426369 63.34123329 266.21426369 63.34190369 264.78025818 C63.33981778 261.69053128 63.31649577 258.60135057 63.29296875 255.51171875 C63.2873721 253.36652422 63.28310233 251.22132584 63.28010559 249.0761261 C63.26866231 243.4355507 63.23919936 237.79520779 63.20599365 232.15472412 C63.17528176 226.3968012 63.16159785 220.63884063 63.14648438 214.88085938 C63.11432935 203.58713755 63.06313906 192.29358812 63 181 C56.07853162 182.17664962 52.84380579 185.88165215 48.91796875 191.4140625 C47.83301592 192.9830837 47.83301592 192.9830837 48 195 C44.04340734 196.31886422 41.17660573 196.26518132 37 196 C34.79086 192.68629 34.77518447 191.6553979 34.875 187.8125 C34.89304687 186.91144531 34.91109375 186.01039063 34.9296875 185.08203125 C34.96449219 184.05142578 34.96449219 184.05142578 35 183 C33.9171875 184.1446875 33.9171875 184.1446875 32.8125 185.3125 C26.8230563 191.0357462 26.8230563 191.0357462 21.8125 190.9375 C19 190 19 190 17.625 187.9375 C17.41875 187.298125 17.2125 186.65875 17 186 C15.14375 186.185625 15.14375 186.185625 13.25 186.375 C9.60421308 186.36204871 9.22108853 186.21569612 6.4375 183.5 C4.07175631 177.7399284 5.42017185 173.29397118 7.55859375 167.7421875 C7.82857178 167.03690918 8.0985498 166.33163086 8.37670898 165.60498047 C8.58239502 165.07533691 8.78808105 164.54569336 9 164 C1.00265109 163.88402474 -6.99434509 163.79524489 -14.99232769 163.74093914 C-18.70636943 163.71487159 -22.41983486 163.67952791 -26.13354492 163.62280273 C-29.71919713 163.56837786 -33.30429591 163.53855808 -36.89032936 163.52561378 C-38.25670902 163.51639236 -39.62305919 163.49838419 -40.9892025 163.47134972 C-48.20489174 163.06889129 -48.20489174 163.06889129 -54.9437561 165.07608032 C-57.2207576 167.28257607 -58.91947959 169.7204805 -59.12025452 172.91091919 C-59.11803391 173.68813324 -59.11581329 174.46534729 -59.11352539 175.26611328 C-59.11344986 176.14687531 -59.11337433 177.02763733 -59.11329651 177.93508911 C-59.10813522 178.88721283 -59.10297394 179.83933655 -59.09765625 180.8203125 C-59.0962413 181.79410858 -59.09482635 182.76790466 -59.09336853 183.77120972 C-59.08775973 186.88917073 -59.07520573 190.0070606 -59.0625 193.125 C-59.05748613 195.23567605 -59.05292303 197.34635322 -59.04882812 199.45703125 C-59.03778745 204.63804521 -59.02104073 209.81901752 -59 215 C-61.0633113 214.37768356 -63.1256169 213.75203215 -65.1875 213.125 C-66.33605469 212.77695312 -67.48460937 212.42890625 -68.66796875 212.0703125 C-71.50914026 211.15767359 -74.23228053 210.10727086 -77 209 C-82.63319389 208.24564186 -87.2197813 208.74075998 -92 212 C-95.32498002 215.37904473 -97.83163502 218.31635023 -98.3125 223.125 C-97.83727834 229.01774858 -95.67301186 233.03175075 -91.875 237.5 C-87.50476508 239.78012257 -83.82666765 239.79663447 -79 239 C-75.9184788 237.9252352 -73.00339651 236.6858194 -70.0546875 235.2890625 C-66.41012761 233.75107687 -62.84510872 232.92812969 -59 232 C-59.00666183 232.55266037 -59.01332367 233.10532074 -59.02018738 233.67472839 C-59.08662483 239.43356501 -59.13183542 245.19229252 -59.16479492 250.95141602 C-59.17986915 253.09989851 -59.20033189 255.2483503 -59.22631836 257.39672852 C-59.26276114 260.48721908 -59.27974019 263.57730231 -59.29296875 266.66796875 C-59.30845261 267.62648239 -59.32393646 268.58499603 -59.33988953 269.57255554 C-59.3414466 275.76088413 -58.57493468 279.06708076 -54.42480469 283.79418945 C-50.48835125 285.75171498 -46.53363501 285.36585819 -42.203125 285.29296875 C-40.77996979 285.28660149 -40.77996979 285.28660149 -39.32806396 285.28010559 C-36.30175234 285.26333082 -33.2761099 285.22568056 -30.25 285.1875 C-28.19662421 285.17245162 -26.14323797 285.15876348 -24.08984375 285.14648438 C-19.05963852 285.11343117 -14.02993267 285.06165683 -9 285 C-9 285.99 -9 286.98 -9 288 C-15.01440255 287.93100476 -21.02811777 287.84297938 -27.04199219 287.73754883 C-29.0865108 287.70435859 -31.13111974 287.67630837 -33.17578125 287.65356445 C-36.12018206 287.61991007 -39.06375954 287.56758834 -42.0078125 287.51171875 C-42.9174173 287.50532883 -43.82702209 287.4989389 -44.76419067 287.49235535 C-49.84512633 287.37546986 -53.73806945 287.06470887 -58 284 C-61.60487586 278.98688743 -61.46997513 273.95001158 -61.51171875 268.0078125 C-61.52966995 267.06187225 -61.54762115 266.11593201 -61.56611633 265.1413269 C-61.62006637 262.13592921 -61.65406604 259.13068896 -61.6875 256.125 C-61.72068657 254.08070733 -61.75517747 252.0364354 -61.79101562 249.9921875 C-61.87578415 244.99490552 -61.94266839 239.99766901 -62 235 C-63.43073232 235.46161791 -64.86017138 235.92724523 -66.2890625 236.39453125 C-67.08521973 236.65339111 -67.88137695 236.91225098 -68.70166016 237.17895508 C-71.22841715 238.02965695 -71.22841715 238.02965695 -74.375 239.6875 C-79.32835876 241.48095748 -83.78790904 241.71538503 -89 241 C-94.18023918 238.40988041 -96.95856698 235.4665519 -99.1875 230.1875 C-100.76644983 223.99315834 -100.36345639 219.37448385 -97.34765625 213.796875 C-95.06588302 210.75451069 -92.42619699 209.58620231 -89 208 C-88.34 207.67 -87.68 207.34 -87 207 C-80.25297517 206.29646408 -75.04069316 206.85604633 -69.0703125 210.125 C-66.6070116 211.32441649 -66.6070116 211.32441649 -62 211 C-62 203.41 -62 195.82 -62 188 C-63.588125 187.195625 -65.17625 186.39125 -66.8125 185.5625 C-71.3260151 183.1610785 -74.81461504 180.46411653 -78.5625 177 C-82.03587934 173.9996063 -82.03587934 173.9996063 -86.28125 172.66015625 C-89.01871006 173.14296171 -91.39939212 174.00978172 -94 175 C-95.32959408 175.41543415 -96.66188222 175.82229947 -97.99609375 176.22265625 C-147.73668639 191.47115522 -188.20219408 224.38500836 -212.64453125 270.28125 C-223.63177014 291.74175764 -230.62805978 315.34806305 -230.33618164 339.53710938 C-230.31242174 341.63190002 -230.31567944 343.72541912 -230.32226562 345.8203125 C-230.29885492 357.94333212 -229.17449918 369.80846248 -225.375 381.375 C-225.11702637 382.17172119 -224.85905273 382.96844238 -224.59326172 383.78930664 C-218.44852948 402.02955459 -208.27105068 417.2045613 -195 431 C-194.44054687 431.63421875 -193.88109375 432.2684375 -193.3046875 432.921875 C-172.70166124 455.57441697 -136.89248951 467.54082569 -107.17431641 469.15332031 C-85.6720085 470.08776483 -64.11595158 468.03227125 -44 460 C-44.58309937 459.28009888 -44.58309937 459.28009888 -45.17797852 458.5456543 C-55.66221393 445.42141039 -60.13499672 431.47419567 -62 415 C-63.59714844 414.87044922 -63.59714844 414.87044922 -65.2265625 414.73828125 C-87.31387224 412.70311537 -105.17752383 403.97532265 -120.12890625 387.6796875 C-131.95300474 373.42947808 -133.4641186 356.82144366 -132 339 C-129.96193948 326.43196014 -123.01478348 314.61759861 -114.28515625 305.5234375 C-112.78506687 304.07740109 -112.78506687 304.07740109 -113 302 C-111 301 -109 300 -107 299 C-108.92555776 302.41860562 -110.95258897 305.13601912 -113.6875 307.9375 C-126.16301562 321.76855046 -130.97027568 337.27289406 -130.37890625 355.63671875 C-129.48535041 371.6002759 -122.43748002 383.48763867 -111.015625 394.42578125 C-94.58525353 408.45118902 -75.13853432 413.50811771 -54 412 C-33.92470964 409.06876129 -20.33227023 394.58595112 -6.81640625 380.83154297 C-5.97980469 379.98092285 -5.14320313 379.13030273 -4.28125 378.25390625 C-3.15299805 377.09870483 -3.15299805 377.09870483 -2.00195312 375.92016602 C0.44660467 373.57164076 2.12424822 372.0854392 5.5625 371.75 C8 372 8 372 10 374 C10.39764263 375.98821313 10.73775349 377.98944339 11 380 C11.680625 379.649375 12.36125 379.29875 13.0625 378.9375 C16.75951503 377.75760159 19.24434265 378.14966249 23 379 C25.35953094 381.35953094 25.49141413 382.77895617 26 386 C26.9075 385.938125 27.815 385.87625 28.75 385.8125 C32 386 32 386 34.375 387 C36.44760398 389.55089721 36.56153017 391.59782053 36.37890625 394.83203125 C35.04182216 402.48235774 29.45867696 408.88810574 25 415 C28.8943283 418.34867385 32.87273491 420.72506811 37.4375 423 C38.13544678 423.34885254 38.83339355 423.69770508 39.55249023 424.05712891 C46.1809062 427.26449951 52.85273082 429.2285296 60 431 C61.12277344 431.34289062 62.24554687 431.68578125 63.40234375 432.0390625 C90.36161773 439.23991093 124.80835879 433.98845204 150 423 C151.24620117 422.46415283 151.24620117 422.46415283 152.51757812 421.91748047 C164.28846451 416.78323384 174.99369031 411.06474192 185 403 C185.57218262 402.54447754 186.14436523 402.08895508 186.73388672 401.61962891 C193.40743857 396.2700624 199.77347983 390.81566482 205 384 C205.77859375 382.99582031 206.5571875 381.99164062 207.359375 380.95703125 C216.11873751 369.3606011 222.16062577 357.10160159 226.875 343.375 C227.16141357 342.55314209 227.44782715 341.73128418 227.74291992 340.88452148 C231.62958539 328.98138931 232.32971353 316.87945332 232.25 304.4375 C232.25773437 303.22642578 232.26546875 302.01535156 232.2734375 300.76757812 C232.18310601 258.60535573 211.93887465 220.34457736 183.36474609 190.43212891 C182.05051533 189.05300947 180.75339339 187.65764787 179.45703125 186.26171875 C161.97405313 167.98526205 138.57328281 153.12800049 115 144 C114.01 144 113.02 144 112 144 Z " fill="#2E3132" transform="translate(809,151)"/>
<path d="M0 0 C1.86170334 0.0001133 1.86170334 0.0001133 3.76101685 0.00022888 C5.12046346 0.00533589 6.47990966 0.01055189 7.83935547 0.01586914 C9.22655181 0.01773397 10.61374881 0.01915757 12.00094604 0.02015686 C15.65388809 0.02397691 19.30679044 0.03380284 22.9597168 0.04486084 C26.68651797 0.05508595 30.41332556 0.05965684 34.14013672 0.06469727 C41.45395691 0.07542556 48.76774438 0.09249585 56.08154297 0.11352539 C55.78119141 0.91016602 55.48083984 1.70680664 55.17138672 2.52758789 C54.79111328 3.58719727 54.41083984 4.64680664 54.01904297 5.73852539 C53.63619141 6.78266602 53.25333984 7.82680664 52.85888672 8.90258789 C51.80772997 13.24455194 52.33363692 16.4417354 54.14404297 20.48852539 C57.25454509 23.09733362 60.1173697 22.37347118 64.08154297 22.11352539 C64.28779297 22.75290039 64.49404297 23.39227539 64.70654297 24.05102539 C65.9636883 26.39400124 65.9636883 26.39400124 68.89404297 27.05102539 C74.05105941 27.15214336 76.2641619 24.89457841 79.89404297 21.42602539 C80.61591797 20.66290039 81.33779297 19.89977539 82.08154297 19.11352539 C82.05833984 19.8005957 82.03513672 20.48766602 82.01123047 21.19555664 C81.99318359 22.09661133 81.97513672 22.99766602 81.95654297 23.92602539 C81.93333984 24.8193457 81.91013672 25.71266602 81.88623047 26.63305664 C81.8986847 29.36755253 81.8986847 29.36755253 84.08154297 32.11352539 C88.2581487 32.37870671 91.12495031 32.43238961 95.08154297 31.11352539 C96.0907033 29.34760652 96.0907033 29.34760652 97.08154297 27.11352539 C99.797952 22.45682419 102.34197311 19.7354151 107.08154297 17.11352539 C108.07154297 17.11352539 109.06154297 17.11352539 110.08154297 17.11352539 C110.15103792 29.54398131 110.20435179 41.97439105 110.23697948 54.40500164 C110.25263874 60.17697191 110.273882 65.94880932 110.30786133 71.72070312 C110.34044514 77.29037089 110.35839403 82.8599108 110.3661747 88.42966652 C110.37171993 90.55515366 110.38254833 92.68063376 110.39873314 94.80606651 C110.42049413 97.78199793 110.42351041 100.75740032 110.42211914 103.73339844 C110.43290497 104.61309296 110.4436908 105.49278748 110.45480347 106.3991394 C110.43078598 111.14342914 110.15042879 114.25334431 107.08154297 118.11352539 C102.69180314 121.84604859 98.31870585 121.50633694 92.84326172 121.40649414 C91.96249466 121.4022493 91.0817276 121.39800446 90.17427063 121.39363098 C87.37221187 121.37689183 84.57088288 121.33924869 81.76904297 121.30102539 C79.86475651 121.28597238 77.96045873 121.27228505 76.05615234 121.26000977 C71.39766974 121.22700393 66.73972992 121.17525468 62.08154297 121.11352539 C62.08154297 122.10352539 62.08154297 123.09352539 62.08154297 124.11352539 C63.88957397 124.08210449 63.88957397 124.08210449 65.73413086 124.05004883 C70.22733574 123.97737709 74.72048917 123.93162711 79.21411133 123.89379883 C81.15495555 123.87374511 83.09573982 123.84649494 85.03637695 123.81176758 C87.83413529 123.76297364 90.63109142 123.74049412 93.42919922 123.72290039 C94.28989517 123.70225525 95.15059113 123.68161011 96.03736877 123.66033936 C101.89049916 123.65818365 105.37918532 124.5297132 110.08154297 128.11352539 C113.6553181 133.06323829 113.55093147 138.00616077 113.59326172 143.88696289 C113.61121292 144.81070709 113.62916412 145.73445129 113.6476593 146.68618774 C113.70159721 149.62025465 113.73560497 152.5541604 113.76904297 155.48852539 C113.80223062 157.48464148 113.83672162 159.48073636 113.87255859 161.47680664 C113.95731423 166.35559632 114.02420414 171.23433958 114.08154297 176.11352539 C115.66574426 175.4907287 117.24886828 174.86519138 118.83154297 174.23852539 C120.15412109 173.71645508 120.15412109 173.71645508 121.50341797 173.18383789 C124.041136 172.17217185 124.041136 172.17217185 126.234375 171.00170898 C130.42665939 168.9859106 135.56645783 169.62328156 140.08154297 170.11352539 C145.51849007 172.7349106 148.9292509 176.46325363 151.33154297 181.98852539 C152.97449338 188.8341521 152.15145871 193.15112301 148.57763672 199.09399414 C145.5701942 203.15364893 141.9243137 205.11781552 137.08154297 206.11352539 C130.73794833 206.94508274 125.70724288 205.8166357 119.72998047 203.59008789 C119.08762451 203.35330322 118.44526855 203.11651855 117.78344727 202.87255859 C116.21368266 202.29284088 114.64725418 201.70410301 113.08154297 201.11352539 C113.10249023 202.32411621 113.1234375 203.53470703 113.14501953 204.78198242 C113.21760837 209.288209 113.26341132 213.79438423 113.30126953 218.30102539 C113.32134203 220.24870505 113.34860629 222.19632476 113.38330078 224.14379883 C113.43201149 226.9489626 113.45455538 229.75332726 113.47216797 232.55883789 C113.49281311 233.42469513 113.51345825 234.29055237 113.534729 235.18264771 C113.5367502 240.67107059 112.7252117 243.74908443 109.08154297 248.11352539 C104.52754856 252.24058282 100.33514362 252.23744469 94.34716797 252.21118164 C93.05166016 252.20795898 91.75615234 252.20473633 90.42138672 252.20141602 C89.0581048 252.19306137 87.69482355 252.18459643 86.33154297 252.17602539 C84.95263832 252.17100707 83.57373193 252.16644474 82.19482422 252.16235352 C78.82368638 252.15056632 75.45263669 252.13411174 72.08154297 252.11352539 C74.79557576 247.28596164 77.66436612 242.68725996 80.81201172 238.12915039 C83.39001593 234.03607293 83.77807884 229.82250031 83.08154297 225.11352539 C81.58154297 222.94685872 81.58154297 222.94685872 79.08154297 222.11352539 C75.91421876 221.86265815 75.91421876 221.86265815 73.08154297 222.11352539 C72.81341797 221.16477539 72.54529297 220.21602539 72.26904297 219.23852539 C71.33167709 215.86085266 71.33167709 215.86085266 68.08154297 214.11352539 C64.53930811 214.42979636 61.45510023 214.9890063 58.08154297 216.11352539 C57.77216797 214.97915039 57.46279297 213.84477539 57.14404297 212.67602539 C56.45229766 209.3257744 56.45229766 209.3257744 55.08154297 208.11352539 C52.0441723 207.74096885 50.54496291 207.80514983 47.96826172 209.51977539 C47.24251953 210.21071289 46.51677734 210.90165039 45.76904297 211.61352539 C44.90279297 212.42821289 44.03654297 213.24290039 43.14404297 214.08227539 C40.83734391 216.33963329 38.5816741 218.6436325 36.33154297 220.95727539 C22.98343056 234.6515222 9.19777129 247.09066632 -10.91845703 248.11352539 C-15.28629263 242.86154313 -15.46092345 238.81132261 -15.30908203 232.12133789 C-15.30342224 231.17539764 -15.29776245 230.2294574 -15.29193115 229.25485229 C-15.26963274 226.24888397 -15.21944841 223.24413028 -15.16845703 220.23852539 C-15.14838359 218.19427184 -15.1301343 216.1499995 -15.11376953 214.10571289 C-15.06978931 209.10785274 -15.00080689 204.11089464 -14.91845703 199.11352539 C-11.16503906 198.01635742 -11.16503906 198.01635742 -8.94580078 198.89086914 C-8.25615234 199.2737207 -7.56650391 199.65657227 -6.85595703 200.05102539 C-1.54388276 202.56680974 3.28193812 203.0036973 9.08154297 202.11352539 C13.51273016 199.97706014 16.31056327 197.73775017 18.08154297 193.11352539 C18.75384586 187.68530205 18.77536621 183.47724693 16.26904297 178.55102539 C13.83285997 175.83642147 12.18084804 174.27248122 8.51513672 173.74243164 C1.63596286 173.58995973 -2.87419778 174.49630595 -8.76220703 178.11743164 C-11.36085336 179.31789326 -12.25937846 178.91507748 -14.91845703 178.11352539 C-15.01764867 171.97547065 -15.09007868 165.83788686 -15.13818359 159.69921875 C-15.15824617 157.61287301 -15.18550293 155.52658312 -15.22021484 153.44042969 C-15.26896862 150.43418561 -15.2914797 147.4286877 -15.30908203 144.42211914 C-15.32972717 143.49580185 -15.35037231 142.56948456 -15.37164307 141.61509705 C-15.37371021 135.5914778 -14.49596046 132.01649792 -10.91845703 127.11352539 C-8.23095703 125.80102539 -8.23095703 125.80102539 -5.91845703 125.11352539 C-5.58845703 124.45352539 -5.25845703 123.79352539 -4.91845703 123.11352539 C9.27154297 123.44352539 23.46154297 123.77352539 38.08154297 124.11352539 C38.08154297 123.12352539 38.08154297 122.13352539 38.08154297 121.11352539 C36.81036621 121.13970947 35.53918945 121.16589355 34.22949219 121.19287109 C29.49969175 121.28357735 24.76996773 121.34084913 20.03955078 121.38818359 C17.99482278 121.41328122 15.95018408 121.44736703 13.90576172 121.49072266 C10.96152686 121.55158354 8.01848101 121.57978269 5.07373047 121.60180664 C4.16412567 121.62761307 3.25452087 121.65341949 2.31735229 121.68000793 C-2.02570363 121.68191414 -5.00075761 121.52636101 -8.48046875 118.77050781 C-11.60454934 115.36580432 -12.04444612 113.09162904 -12.03198242 108.64208984 C-12.03190689 107.7413826 -12.03183136 106.84067535 -12.03175354 105.91267395 C-12.02659225 104.94383774 -12.02143097 103.97500153 -12.01611328 102.97680664 C-12.01469833 101.98222946 -12.01328339 100.98765228 -12.01182556 99.9629364 C-12.00622464 96.78393557 -11.99367199 93.60500497 -11.98095703 90.42602539 C-11.97594215 88.27172953 -11.97137922 86.11743257 -11.96728516 83.96313477 C-11.95625491 78.67990765 -11.93951589 73.39672154 -11.91845703 68.11352539 C-14.00935925 68.740213 -16.0989558 69.37125804 -18.18798828 70.00415039 C-19.35177002 70.35509766 -20.51555176 70.70604492 -21.71459961 71.06762695 C-24.16534102 71.86767086 -26.31890771 72.71126631 -28.60595703 73.86352539 C-33.13431917 75.57234129 -37.14013384 75.94145268 -41.91845703 75.11352539 C-45.80948586 73.28197416 -47.72057983 70.46970435 -49.79345703 66.73852539 C-51.00523686 62.8339015 -51.43476024 60.17019349 -50.91845703 56.11352539 C-48.12401883 50.83514212 -44.65252322 47.02488079 -38.91845703 45.11352539 C-31.66461262 44.41154045 -26.61228186 46.09114313 -19.93408203 48.92211914 C-17.22217584 49.99353286 -14.77127 50.58834024 -11.91845703 51.11352539 C-11.9394043 49.81205566 -11.96035156 48.51058594 -11.98193359 47.16967773 C-12.05448896 42.32799336 -12.1003135 37.48635679 -12.13818359 32.64428711 C-12.15826362 30.55110586 -12.18553344 28.45798047 -12.22021484 26.36499023 C-12.26889137 23.3513407 -12.29146215 20.33843466 -12.30908203 17.32446289 C-12.32972717 16.39298431 -12.35037231 15.46150574 -12.37164307 14.50180054 C-12.37362506 8.72581232 -11.74118724 5.52539324 -7.91845703 1.11352539 C-5.19367551 -0.24886537 -3.05004848 -0.00617419 0 0 Z " fill="#FDC72A" transform="translate(761.91845703125,314.886474609375)"/>
<path d="M0 0 C1.86170334 0.0001133 1.86170334 0.0001133 3.76101685 0.00022888 C5.12046346 0.00533589 6.47990966 0.01055189 7.83935547 0.01586914 C9.22655181 0.01773397 10.61374881 0.01915757 12.00094604 0.02015686 C15.65388809 0.02397691 19.30679044 0.03380284 22.9597168 0.04486084 C26.68651797 0.05508595 30.41332556 0.05965684 34.14013672 0.06469727 C41.45395691 0.07542556 48.76774438 0.09249585 56.08154297 0.11352539 C55.78119141 0.91016602 55.48083984 1.70680664 55.17138672 2.52758789 C54.79111328 3.58719727 54.41083984 4.64680664 54.01904297 5.73852539 C53.63619141 6.78266602 53.25333984 7.82680664 52.85888672 8.90258789 C51.80772997 13.24455194 52.33363692 16.4417354 54.14404297 20.48852539 C57.25454509 23.09733362 60.1173697 22.37347118 64.08154297 22.11352539 C64.28779297 22.75290039 64.49404297 23.39227539 64.70654297 24.05102539 C65.9636883 26.39400124 65.9636883 26.39400124 68.89404297 27.05102539 C74.05105941 27.15214336 76.2641619 24.89457841 79.89404297 21.42602539 C80.61591797 20.66290039 81.33779297 19.89977539 82.08154297 19.11352539 C82.05833984 19.8005957 82.03513672 20.48766602 82.01123047 21.19555664 C81.99318359 22.09661133 81.97513672 22.99766602 81.95654297 23.92602539 C81.93333984 24.8193457 81.91013672 25.71266602 81.88623047 26.63305664 C81.8986847 29.36755253 81.8986847 29.36755253 84.08154297 32.11352539 C88.2581487 32.37870671 91.12495031 32.43238961 95.08154297 31.11352539 C96.0907033 29.34760652 96.0907033 29.34760652 97.08154297 27.11352539 C99.797952 22.45682419 102.34197311 19.7354151 107.08154297 17.11352539 C108.07154297 17.11352539 109.06154297 17.11352539 110.08154297 17.11352539 C110.15103792 29.54398131 110.20435179 41.97439105 110.23697948 54.40500164 C110.25263874 60.17697191 110.273882 65.94880932 110.30786133 71.72070312 C110.34044514 77.29037089 110.35839403 82.8599108 110.3661747 88.42966652 C110.37171993 90.55515366 110.38254833 92.68063376 110.39873314 94.80606651 C110.42049413 97.78199793 110.42351041 100.75740032 110.42211914 103.73339844 C110.43290497 104.61309296 110.4436908 105.49278748 110.45480347 106.3991394 C110.43078824 111.14298256 110.15126037 114.25434579 107.08154297 118.11352539 C102.72546602 121.79358166 98.48499161 121.50799491 93.06201172 121.40649414 C92.2034407 121.4022493 91.34486969 121.39800446 90.46028137 121.39363098 C87.72954383 121.37689534 84.99955585 121.33925305 82.26904297 121.30102539 C80.41293387 121.28597192 78.55681315 121.27228467 76.70068359 121.26000977 C72.16068312 121.22700862 67.62123995 121.17526198 63.08154297 121.11352539 C63.95166016 115.42260742 63.95166016 115.42260742 65.12060547 112.64086914 C67.0073454 107.67858973 66.61366392 102.3296246 66.08154297 97.11352539 C63.94681039 92.60686771 61.16332168 89.93937219 57.08154297 87.11352539 C51.50741044 85.25548121 46.13878729 85.30721155 40.76904297 87.80102539 C36.70955213 90.07336986 34.1652854 92.94604054 32.08154297 97.11352539 C31.29648376 105.22580386 33.7375359 110.81152963 37.08154297 118.11352539 C37.41154297 119.10352539 37.74154297 120.09352539 38.08154297 121.11352539 C32.0676215 121.23740196 26.05444749 121.32799611 20.03955078 121.38818359 C17.99482278 121.41328122 15.95018408 121.44736703 13.90576172 121.49072266 C10.96152686 121.55158354 8.01848101 121.57978269 5.07373047 121.60180664 C4.16412567 121.62761307 3.25452087 121.65341949 2.31735229 121.68000793 C-2.02570363 121.68191414 -5.00075761 121.52636101 -8.48046875 118.77050781 C-11.60454934 115.36580432 -12.04444612 113.09162904 -12.03198242 108.64208984 C-12.03190689 107.7413826 -12.03183136 106.84067535 -12.03175354 105.91267395 C-12.02659225 104.94383774 -12.02143097 103.97500153 -12.01611328 102.97680664 C-12.01469833 101.98222946 -12.01328339 100.98765228 -12.01182556 99.9629364 C-12.00622464 96.78393557 -11.99367199 93.60500497 -11.98095703 90.42602539 C-11.97594215 88.27172953 -11.97137922 86.11743257 -11.96728516 83.96313477 C-11.95625491 78.67990765 -11.93951589 73.39672154 -11.91845703 68.11352539 C-14.00935925 68.740213 -16.0989558 69.37125804 -18.18798828 70.00415039 C-19.35177002 70.35509766 -20.51555176 70.70604492 -21.71459961 71.06762695 C-24.16534102 71.86767086 -26.31890771 72.71126631 -28.60595703 73.86352539 C-33.13431917 75.57234129 -37.14013384 75.94145268 -41.91845703 75.11352539 C-45.80948586 73.28197416 -47.72057983 70.46970435 -49.79345703 66.73852539 C-51.00523686 62.8339015 -51.43476024 60.17019349 -50.91845703 56.11352539 C-48.12401883 50.83514212 -44.65252322 47.02488079 -38.91845703 45.11352539 C-31.66461262 44.41154045 -26.61228186 46.09114313 -19.93408203 48.92211914 C-17.22217584 49.99353286 -14.77127 50.58834024 -11.91845703 51.11352539 C-11.9394043 49.81205566 -11.96035156 48.51058594 -11.98193359 47.16967773 C-12.05448896 42.32799336 -12.1003135 37.48635679 -12.13818359 32.64428711 C-12.15826362 30.55110586 -12.18553344 28.45798047 -12.22021484 26.36499023 C-12.26889137 23.3513407 -12.29146215 20.33843466 -12.30908203 17.32446289 C-12.32972717 16.39298431 -12.35037231 15.46150574 -12.37164307 14.50180054 C-12.37362506 8.72581232 -11.74118724 5.52539324 -7.91845703 1.11352539 C-5.19367551 -0.24886537 -3.05004848 -0.00617419 0 0 Z " fill="#FDFDFD" transform="translate(761.91845703125,314.886474609375)"/>
<path d="M0 0 C0.66 0 1.32 0 2 0 C2.4125 0.7425 2.825 1.485 3.25 2.25 C6.47775181 7.32218141 11.30829916 9.57551968 17 11 C21.1284791 11.23864254 25.2414527 11.18829342 29.375 11.125 C30.49261719 11.11597656 31.61023438 11.10695312 32.76171875 11.09765625 C35.50803462 11.07418346 38.25390472 11.04134728 41 11 C41.08636719 12.18335938 41.17273438 13.36671875 41.26171875 14.5859375 C42.20721866 25.84024431 43.39470465 34.92806006 51.9375 43.0625 C55.18291073 45.68592499 57.72719044 46.89317976 62 47 C61.67 49.64 61.34 52.28 61 55 C61.99 55 62.98 55 64 55 C63.9175 54.2575 63.835 53.515 63.75 52.75 C64 50 64 50 65.5625 47.625 C68 46 68 46 71.375 45.8125 C77.38448483 47.78112434 79.76396059 51.89873301 82.875 57.1875 C84.78269642 63.65247119 85.03063105 70.11423305 82.75 76.5 C78.46328071 82.62388469 78.46328071 82.62388469 74.91796875 83.53515625 C70.42442985 84.18347778 67.097282 84.24689658 63 82 C63.33 82.66 63.66 83.32 64 84 C64.07033769 85.87379605 64.0843022 87.75001102 64.0625 89.625 C64.05347656 90.62789063 64.04445313 91.63078125 64.03515625 92.6640625 C64.01775391 93.82035156 64.01775391 93.82035156 64 95 C63.12859375 95.27972656 62.2571875 95.55945313 61.359375 95.84765625 C47.34255901 100.56543739 35.55556214 107.24323741 25.75584412 118.60093689 C22.4260745 121.49962314 21.00257838 121.61716403 16.65258789 121.59594727 C15.39100357 121.6026796 14.12941925 121.60941193 12.8296051 121.61634827 C12.16056215 121.60817644 11.4915192 121.60000462 10.80220222 121.59158516 C8.69502734 121.56607172 6.58979972 121.57099074 4.48252869 121.58348083 C0.00896986 121.60419037 -4.46398134 121.58457427 -8.9375 121.5625 C-14.12047469 121.54135465 -19.30281896 121.53690272 -24.48578072 121.56300163 C-26.55452806 121.56634911 -28.62205535 121.54518905 -30.69065857 121.52259827 C-39.69229377 121.41361874 -39.69229377 121.41361874 -47 126 C-50.2204835 129.97582078 -50.5215074 133.85643525 -50.6875 138.8125 C-50.72166016 139.50537109 -50.75582031 140.19824219 -50.79101562 140.91210938 C-50.87286344 142.60752849 -50.93812365 144.30373458 -51 146 C-58.75186845 143.18994769 -65.47740945 138.0748496 -71 132 C-70.55269531 131.40574219 -70.10539063 130.81148437 -69.64453125 130.19921875 C-60.33862946 117.44080756 -57.67966088 105.57886599 -55.40136719 90.16381836 C-55 88 -55 88 -54 86 C-54.86625 86.495 -55.7325 86.99 -56.625 87.5 C-60.26109537 89.11604239 -62.09008091 89.65165318 -66 89 C-70.74948215 85.92680567 -73.74976713 82.66221166 -75 77 C-76.0122407 68.15226644 -74.83792126 60.39033885 -69.609375 53.046875 C-67.17719684 50.30747433 -65.43264265 49.0763487 -61.8125 48.4375 C-59 49 -59 49 -57.125 50.125 C-55.5317901 52.78034983 -55.79785968 54.96789518 -56 58 C-55.01 58 -54.02 58 -53 58 C-53.50199198 54.27091669 -54.04207023 50.63852314 -55 47 C-54.2265625 46.74347656 -53.453125 46.48695313 -52.65625 46.22265625 C-44.05177665 43.05987335 -38.55343648 39.13192287 -33.91796875 31.1328125 C-31.18968904 24.86986499 -30.80164455 17.71495199 -30 11 C-29.02160156 10.97421875 -28.04320312 10.9484375 -27.03515625 10.921875 C-16.84648199 10.48106707 -8.70530344 9.22372198 -1 2 C-0.67 1.34 -0.34 0.68 0 0 Z " fill="#FDFDFD" transform="translate(798,190)"/>
<path d="M0 0 C0.9075 0.763125 1.815 1.52625 2.75 2.3125 C4.93200344 4.31977462 4.93200344 4.31977462 8 3.875 C10.9242482 3.09960208 10.9242482 3.09960208 13.265625 1.96875 C19.92883399 -0.39192976 28.38315745 -0.06600571 34.9375 2.5625 C42.87218073 6.78745987 48.19228919 13.50009424 51 22 C52.35691793 28.57215952 53 35.29610502 53 42 C53.59683594 42.25523437 54.19367188 42.51046875 54.80859375 42.7734375 C60.16652468 45.77235071 63.66215305 52.15657102 65.52734375 57.875 C67.17827094 65.29735032 65.99463313 71.12288841 62.875 77.96875 C61.86812537 79.93752145 61.86812537 79.93752145 62 82 C63.03125 82.45375 64.0625 82.9075 65.125 83.375 C70.91503557 86.6701422 74.05305891 92.75334485 75.875 99 C75.91625 99.99 75.9575 100.98 76 102 C76.05607422 103.24523437 76.05607422 103.24523437 76.11328125 104.515625 C76.25197632 109.62544347 76.25197632 109.62544347 76 112 C75.34 112.66 74.68 113.32 74 114 C73.34 114 72.68 114 72 114 C72.05800781 113.10539062 72.11601563 112.21078125 72.17578125 111.2890625 C72.48623945 102.96878274 71.90487441 96.88026219 67 90 C64.3846394 87.25387137 63.08695597 86.18115933 59.375 85.5625 C56.51028758 86.09021018 55.6474987 86.61112689 54 89 C53.27802838 91.60611077 53.27802838 91.60611077 53 94 C52.01 94 51.02 94 50 94 C50.33 91.36 50.66 88.72 51 86 C49.7625 86.2165625 49.7625 86.2165625 48.5 86.4375 C43.25068206 85.78133526 40.5456023 82.75773235 37 79 C30.03427974 69.8345786 29.83777419 61.13950593 30 50 C29.19046875 50.15855469 28.3809375 50.31710938 27.546875 50.48046875 C17.17077671 52.00031575 5.17543338 52.76954229 -4 47 C-6.10703419 45.42816214 -7.37107915 44.11759711 -9 42 C-9 41.01 -9 40.02 -9 39 C-9.66 39 -10.32 39 -11 39 C-11.226875 39.5775 -11.45375 40.155 -11.6875 40.75 C-14.32462681 45.27078882 -18.52890897 47.73353892 -23.3984375 49.47265625 C-29.14834566 50.63817817 -35.16095809 50.20527882 -41 50 C-40.94779297 50.90878906 -40.94779297 50.90878906 -40.89453125 51.8359375 C-40.5581169 62.24876252 -42.94398473 70.23318221 -50 78 C-54.76816194 82.87652925 -59.53800958 84.42919996 -66 86 C-65.67257812 86.58265625 -65.34515625 87.1653125 -65.0078125 87.765625 C-63.60508245 90.87555364 -63.87050134 93.63303481 -64 97 C-64.99 97 -65.98 97 -67 97 C-67.309375 95.865625 -67.61875 94.73125 -67.9375 93.5625 C-68.62924531 90.21224901 -68.62924531 90.21224901 -70 89 C-72.67058851 88.85884839 -75.32432238 88.95752893 -78 89 C-77.34 87.35 -76.68 85.7 -76 84 C-76.598125 83.484375 -77.19625 82.96875 -77.8125 82.4375 C-81.3764123 78.46628344 -83.15108092 74.26066728 -83.375 68.9375 C-82.80978259 63.00271716 -80.92412716 59.63377217 -76.625 55.625 C-74.17868873 53.63055515 -73.27026511 53.03450193 -70.0625 52.625 C-69.0415625 52.810625 -69.0415625 52.810625 -68 53 C-68.2165625 52.47792969 -68.433125 51.95585937 -68.65625 51.41796875 C-71.31728005 44.38348654 -72.48713569 37.5869874 -70.12109375 30.2890625 C-66.84530353 23.08881074 -62.37160987 18.23495459 -55.0625 15.125 C-50.9645187 13.75365988 -47.2918483 13.77007956 -43 14 C-42.773125 13.29875 -42.54625 12.5975 -42.3125 11.875 C-38.90889616 4.41948683 -33.25485918 0.48006526 -26 -3 C-16.85461389 -5.38325603 -8.30722382 -4.48590086 0 0 Z " fill="#1C1F23" transform="translate(809,151)"/>
<path d="M0 0 C1.69745361 0.00809692 1.69745361 0.00809692 3.42919922 0.01635742 C15.63160458 0.23658916 25.90158547 3.10424325 37.25 7.4375 C38.05595677 23.55663544 35.59370494 34.5201244 25.25 47.4375 C24.26921466 48.45635235 23.27608002 49.46427865 22.25 50.4375 C18.23001007 49.13100327 14.29499426 47.69725811 10.375 46.12109375 C2.88244162 43.71080383 -7.03382254 42.58788482 -14.44921875 45.49609375 C-19.78892026 48.84133969 -23.28506857 53.25247762 -26.75 58.4375 C-27.75 59.4375 -27.75 59.4375 -30.75 59.5625 C-33.75 59.4375 -33.75 59.4375 -34.75 58.4375 C-35.36208166 52.43909971 -34.20779363 48.26381354 -30.75 43.4375 C-27.9422848 40.52006947 -25.02940095 37.81791459 -21.75 35.4375 C-21.09 35.4375 -20.43 35.4375 -19.75 35.4375 C-19.75 34.4475 -19.75 33.4575 -19.75 32.4375 C-28.97125488 36.44171924 -36.18060614 41.59127098 -42 49.875 C-43.86027826 52.50522676 -44.43791377 53.30982836 -47.5 54.5625 C-49.75 54.4375 -49.75 54.4375 -51.75 52.4375 C-52.3904855 47.12259399 -50.84909067 43.02073598 -47.6875 38.8125 C-44.55286868 35.10675573 -41.10723036 31.91454332 -37.3515625 28.84765625 C-35.62934503 27.50932515 -35.62934503 27.50932515 -34.75 25.4375 C-45.24598578 29.9616318 -49.33929328 37.07492974 -54.72265625 46.83984375 C-56.75 49.4375 -56.75 49.4375 -59.37109375 49.94140625 C-61.75 49.4375 -61.75 49.4375 -63.75 47.4375 C-65.14684533 40.57415422 -63.30558116 35.09019032 -59.765625 29.234375 C-45.82655625 9.89256643 -23.52119542 -0.21658235 0 0 Z " fill="#FCFCFC" transform="translate(880.75,285.5625)"/>
<path d="M0 0 C0.598125 0.20625 1.19625 0.4125 1.8125 0.625 C1.8125 10.32444154 -2.9041194 16.15762539 -9.4609375 22.99609375 C-10.82782384 24.34077435 -12.21258114 25.66773639 -13.62109375 26.96875 C-15.42949951 28.64747511 -15.42949951 28.64747511 -16.1875 31.625 C-9.18610624 26.8709672 -4.04868901 21.21806639 1.234375 14.7109375 C3.58720567 11.82988381 6.1393935 9.21398776 8.8125 6.625 C9.1425 6.295 9.4725 5.965 9.8125 5.625 C12.25 5.4375 12.25 5.4375 14.8125 5.625 C16.8125 7.625 16.8125 7.625 16.8125 10.625 C15.20424399 19.47040806 8.32701322 26.68934391 2.66796875 33.27734375 C0.64340729 35.56535876 0.64340729 35.56535876 -0.1875 38.625 C4.57385289 35.05398533 7.99849947 31.02961383 11.64453125 26.33984375 C15.1696064 21.92556045 18.99104125 17.78260558 22.8125 13.625 C26.6875 14.5 26.6875 14.5 27.8125 15.625 C29.04914944 23.92821769 24.16633361 29.3963249 19.46875 35.83984375 C11.54760095 46.41480237 3.34288168 55.57148275 -7.1875 63.625 C-7.97898437 64.23214844 -8.77046875 64.83929687 -9.5859375 65.46484375 C-18.20679577 71.78012365 -35.37217473 84.18627539 -46.2734375 83.4921875 C-53.67892981 80.13704609 -58.33534206 70.82588546 -61.1875 63.625 C-63.8485083 56.05393036 -64.78313383 48.61471771 -65.1875 40.625 C-64.3625 40.50125 -63.5375 40.3775 -62.6875 40.25 C-55.56240595 38.97766178 -49.40639902 37.14084903 -42.9375 33.9375 C-42.00164063 33.48407227 -42.00164063 33.48407227 -41.046875 33.02148438 C-30.78997959 27.71140415 -22.73336644 19.43159901 -14.75 11.25 C-13.00354544 9.46915136 -11.25494623 7.69040267 -9.50390625 5.9140625 C-8.74537354 5.13756348 -7.98684082 4.36106445 -7.20532227 3.56103516 C-2.96423167 -0.508154 -2.96423167 -0.508154 0 0 Z " fill="#FCFCFC" transform="translate(815.1875,525.375)"/>
<path d="M0 0 C-1.40684559 3.31149808 -3.0193725 5.07479365 -5.8125 7.3125 C-11.18924574 11.91694953 -14.97412358 15.69800635 -15.8125 22.9375 C-15.89607611 24.29052943 -15.96619716 25.6448133 -16 27 C-14.11807129 27.67388384 -14.11807129 27.67388384 -12 28 C-9.41492971 25.84577475 -7.41528366 23.50820101 -5.2890625 20.90625 C-0.30547545 14.96662788 5.03264161 10.50056294 12 7 C12.99 7 13.98 7 15 7 C15 7.99 15 8.98 15 10 C13.390625 11.4296875 13.390625 11.4296875 11.25 12.875 C6.30562124 16.41293886 2.70721203 20.0247579 1 26 C0.92353835 28.3320802 0.90856701 30.66845878 1 33 C3.81288149 33.43934062 3.81288149 33.43934062 7 33 C9.4315878 30.74530138 9.4315878 30.74530138 11.4375 27.75 C18.09064031 19.19124169 18.09064031 19.19124169 23 18 C33.17001018 16.93214893 43.35731095 18.07789317 52.5 22.8125 C54.87962624 24.26175938 54.87962624 24.26175938 57.125 23.5 C59.16666667 21.97916667 59.16666667 21.97916667 61 19.5 C62.93924781 17.07594024 64.16317019 16.11446885 67 15 C66.61953672 18.29734841 65.64684738 19.42206045 63.4375 22.0625 C60.68071377 24.7485962 60.68071377 24.7485962 61 28 C63.21988256 29.90828465 63.21988256 29.90828465 66.0625 31.75 C88.1314158 47.35286404 101.066075 73.94431049 106.4375 99.9375 C108.79552645 118.51027014 107.73705663 138.14996221 99 155 C98.01 155 97.02 155 96 155 C96.45535099 153.43662827 96.91442776 151.87434151 97.375 150.3125 C97.63023437 149.44238281 97.88546875 148.57226562 98.1484375 147.67578125 C99 145 99 145 100.03125 142.4765625 C107.98980777 122.13089464 103.27399812 95.51255332 94.93164062 76.07373047 C90.15230914 65.4354596 84.75847536 55.77189506 77 47 C76.51144531 46.38125 76.02289062 45.7625 75.51953125 45.125 C65.91571973 33.07315809 51.1002514 23.67111953 35.70204163 21.7068634 C34.90583908 21.62288803 34.10963654 21.53891266 33.28930664 21.45239258 C32.48441299 21.3664534 31.67951935 21.28051422 30.85023499 21.19197083 C30.23965744 21.12862045 29.6290799 21.06527008 29 21 C29.00888245 22.19967911 29.01776489 23.39935822 29.0269165 24.63539124 C29.10805836 35.94987328 29.16799245 47.26429617 29.20724869 58.57900333 C29.22810933 64.39580998 29.25639967 70.21238144 29.30175781 76.02905273 C29.34526912 81.64412684 29.36914857 87.25897493 29.37950897 92.87420464 C29.38689079 95.01480097 29.40130579 97.15538515 29.42292023 99.29588509 C29.45202391 102.29786889 29.45595302 105.29892285 29.45410156 108.30102539 C29.47567322 109.62380745 29.47567322 109.62380745 29.49768066 110.97331238 C29.45880924 116.81107466 28.39494565 120.21312615 25 125 C20.0593856 128.57428398 15.30186938 128.39769974 9.4453125 128.29296875 C8.54376434 128.28872391 7.64221619 128.28447906 6.71334839 128.28010559 C3.85025435 128.26339058 0.98787921 128.22575192 -1.875 128.1875 C-3.82290646 128.17244387 -5.77082402 128.15875709 -7.71875 128.14648438 C-12.47944122 128.11351058 -17.23959896 128.06177813 -22 128 C-22 127.01 -22 126.02 -22 125 C-20.81446533 124.98541748 -19.62893066 124.97083496 -18.4074707 124.95581055 C-13.99961523 124.89774062 -9.59226596 124.82050816 -5.18481445 124.73754883 C-3.27897369 124.70434038 -1.37303554 124.67629575 0.53295898 124.65356445 C3.27630015 124.61994332 6.01875222 124.56762405 8.76171875 124.51171875 C9.61086349 124.50532883 10.46000824 124.4989389 11.33488464 124.49235535 C15.990761 124.37722151 19.28600401 124.11617858 23 121 C24.67796219 118.20554522 25.25300534 116.11732066 25.2784729 112.87445068 C25.28963638 112.06119324 25.30079987 111.24793579 25.31230164 110.41003418 C25.31446182 109.52674438 25.31662201 108.64345459 25.31884766 107.73339844 C25.33391609 106.32800812 25.33391609 106.32800812 25.34928894 104.89422607 C25.38016432 101.79928192 25.3971683 98.70442445 25.4140625 95.609375 C25.43277063 93.4627406 25.45234377 91.31611358 25.4727478 89.16949463 C25.52411242 83.52083687 25.56371506 77.87215526 25.60089111 72.22338867 C25.64090355 66.45876138 25.6920085 60.69423368 25.7421875 54.9296875 C25.8389981 43.61986159 25.92338653 32.3099795 26 21 C20.10731066 23.81647824 16.52594767 26.71107849 12.875 32.1875 C11 35 11 35 8 37 C5.27742603 37.4720592 2.72721258 37.43749035 0 37 C-2 35.5625 -2 35.5625 -3 33 C-3.22339665 29.98154755 -3.17422244 27.01985562 -3 24 C-3.35191406 24.49371094 -3.70382812 24.98742187 -4.06640625 25.49609375 C-6.77324397 29.00862207 -8.30938582 30.77376432 -12.625 32.1875 C-16 32 -16 32 -18.4375 30.1875 C-20 28 -20 28 -20 26 C-20.66 26.33 -21.32 26.66 -22 27 C-24.875 27.375 -24.875 27.375 -28 27 C-30.63104022 24.58228737 -31.7883689 22.62078457 -32.9375 19.25 C-33.02184699 14.86395662 -32.13832554 10.8597934 -30 7 C-27.88671875 5.734375 -27.88671875 5.734375 -26 5 C-26.875 9.75 -26.875 9.75 -28 12 C-28.09534254 13.6853196 -28.12985758 15.37449266 -28.125 17.0625 C-28.12757813 17.96097656 -28.13015625 18.85945313 -28.1328125 19.78515625 C-28.24738223 21.97378893 -28.24738223 21.97378893 -27 23 C-24.64347822 23.6740149 -24.64347822 23.6740149 -22 23 C-20.3083726 20.64022534 -19.01002762 18.49153228 -17.6875 15.9375 C-13.91142826 9.1263577 -8.74610978 0 0 0 Z " fill="#2C3034" transform="translate(846,311)"/>
<path d="M0 0 C0.99 0 1.98 0 3 0 C3.515625 1.19625 4.03125 2.3925 4.5625 3.625 C8.77610617 11.9347599 15.45451495 15.07699706 24 18 C23.67 18.66 23.34 19.32 23 20 C22.154375 19.835 21.30875 19.67 20.4375 19.5 C15.74888585 20.18198024 14.66049922 22.3889636 11.78515625 25.953125 C8.21849521 30.04268821 4.64499295 31.81123032 -0.8125 32.4375 C-1.864375 32.293125 -2.91625 32.14875 -4 32 C-6.33500335 28.49749497 -6.57905706 26.69985815 -6.5390625 22.59375 C-5.85096235 19.28289129 -4.38012959 17.2552834 -2.4375 14.5 C0.24134649 10.68614024 1.511609 8.50105682 0.9375 3.8125 C0.628125 2.554375 0.31875 1.29625 0 0 Z " fill="#FCC62D" transform="translate(776,273)"/>
<path d="M0 0 C0.99 0.495 0.99 0.495 2 1 C0.82318302 4.53045093 -0.1739086 5.10920827 -3.125 7.25 C-8.4721604 11.27949766 -13.12000739 15.59778722 -17.25 20.875 C-19 23 -19 23 -22 24 C-22 23.34 -22 22.68 -22 22 C-51.7 21.505 -51.7 21.505 -82 21 C-82 19.68 -82 18.36 -82 17 C-80.8372757 17.02117889 -80.8372757 17.02117889 -79.65106201 17.04278564 C-72.29610179 17.16592682 -64.94396363 17.23018269 -57.58805466 17.23059464 C-53.80718349 17.2328222 -50.02919188 17.25670631 -46.24902344 17.33251953 C-27.83029999 18.62284911 -27.83029999 18.62284911 -11.76690674 11.81488037 C-9.6232788 9.36698148 -7.85184656 6.67196258 -6 4 C-4.07420244 2.45573255 -2.13307392 1.26152815 0 0 Z " fill="#4A4D50" transform="translate(839,294)"/>
<path d="M0 0 C0.00586624 0.55266037 0.01173248 1.10532074 0.01777649 1.67472839 C0.08177822 7.43395947 0.16621516 13.19263526 0.26245117 18.95141602 C0.29567746 21.09977898 0.32371653 23.24822875 0.34643555 25.39672852 C0.38002331 28.48751776 0.43234221 31.57751312 0.48828125 34.66796875 C0.49467117 35.62648239 0.5010611 36.58499603 0.50764465 37.57255554 C0.61556302 42.48241588 0.7141962 46.07166916 4 50 C7.08039853 52.05359902 7.79484698 52.25738734 11.2878418 52.31884766 C12.14850754 52.33871735 13.00917328 52.35858704 13.8959198 52.37905884 C15.28355278 52.39638565 15.28355278 52.39638565 16.69921875 52.4140625 C17.64940384 52.43342865 18.59958893 52.4527948 19.5785675 52.4727478 C22.6147869 52.53254912 25.65104419 52.57893129 28.6875 52.625 C30.74545928 52.66317926 32.80340258 52.70223096 34.86132812 52.7421875 C39.9074223 52.83825119 44.95359129 52.92228031 50 53 C50 53.99 50 54.98 50 56 C44.00436173 56.09920868 38.009206 56.17162945 32.01293945 56.21972656 C29.97509432 56.23978632 27.93730634 56.26704099 25.8996582 56.30175781 C22.96290953 56.35052434 20.02692482 56.37302541 17.08984375 56.390625 C16.18540024 56.41127014 15.28095673 56.43191528 14.34910583 56.45318604 C8.37945492 56.45528233 4.78436363 55.67892765 0 52 C-3.67142062 46.9774256 -3.39460516 41.97848077 -3.29296875 36.0078125 C-3.28872391 35.06187225 -3.28447906 34.11593201 -3.28010559 33.1413269 C-3.26338306 30.13558867 -3.22574263 27.1305338 -3.1875 24.125 C-3.17244486 22.08073889 -3.15875791 20.03646721 -3.14648438 17.9921875 C-3.11350055 12.99453046 -3.06176253 7.99738089 -3 3 C-4.32 2.67 -5.64 2.34 -7 2 C-4 0 -4 0 0 0 Z " fill="#262A2D" transform="translate(750,383)"/>
<path d="M0 0 C0.66 0.33 1.32 0.66 2 1 C-1.36488397 7.07880504 -6.17585111 11.50525993 -11.0625 16.375 C-11.96677734 17.29539062 -12.87105469 18.21578125 -13.80273438 19.1640625 C-21.80643247 27.17348161 -29.93803514 33.59745015 -40.4375 37.9375 C-41.13037109 38.23978516 -41.82324219 38.54207031 -42.53710938 38.85351562 C-45.51034545 40.12037274 -47.73636255 41 -51 41 C-50.375 39.14453125 -50.375 39.14453125 -49 37 C-46.3125 35.76171875 -46.3125 35.76171875 -43 34.6875 C-25.47188164 28.34343956 -12.80540965 12.9605255 0 0 Z " fill="#272928" transform="translate(809,524)"/>
<path d="M0 0 C0.495 1.485 0.495 1.485 1 3 C-4.54630064 8.84610067 -4.54630064 8.84610067 -8.9172821 9.12025452 C-9.63898087 9.11803391 -10.36067963 9.11581329 -11.10424805 9.11352539 C-12.3351844 9.11341209 -12.3351844 9.11341209 -13.59098816 9.11329651 C-14.9129998 9.10555458 -14.9129998 9.10555458 -16.26171875 9.09765625 C-17.16751175 9.0962413 -18.07330475 9.09482635 -19.00654602 9.09336853 C-21.90023091 9.08777001 -24.79383849 9.07521781 -27.6875 9.0625 C-29.64908742 9.05748481 -31.61067606 9.05292193 -33.57226562 9.04882812 C-38.38154021 9.03780107 -43.190757 9.02053747 -48 9 C-48 8.01 -48 7.02 -48 6 C-46.221698 5.97812622 -46.221698 5.97812622 -44.4074707 5.95581055 C-39.99961523 5.89774062 -35.59226596 5.82050816 -31.18481445 5.73754883 C-29.27897369 5.70434038 -27.37303554 5.67629575 -25.46704102 5.65356445 C-22.72369985 5.61994332 -19.98124778 5.56762405 -17.23828125 5.51171875 C-15.96456413 5.50213387 -15.96456413 5.50213387 -14.66511536 5.49235535 C-9.92090076 5.37503702 -6.90965231 4.95157715 -3 2 C-2.01 1.34 -1.02 0.68 0 0 Z " fill="#202327" transform="translate(872,430)"/>
<path d="M0 0 C0.99 0.33 1.98 0.66 3 1 C-3.35901989 7.96739993 -13.04627117 9.3720302 -21.875 11.75 C-22.69556885 11.97292725 -23.5161377 12.19585449 -24.36157227 12.42553711 C-28.32022267 13.4587404 -31.87001338 14.30097068 -36 14 C-35.41015625 12.0859375 -35.41015625 12.0859375 -34 10 C-31.12109375 9.1640625 -31.12109375 9.1640625 -27.4375 8.625 C-21.27905641 7.60555615 -15.55606489 6.00068132 -9.6875 3.875 C-8.95265381 3.60896973 -8.21780762 3.34293945 -7.46069336 3.06884766 C-4.92298287 2.13382308 -2.42098244 1.21049122 0 0 Z " fill="#303333" transform="translate(961,572)"/>
<path d="M0 0 C0.99 0 1.98 0 3 0 C3.515625 1.19625 4.03125 2.3925 4.5625 3.625 C8.77610617 11.9347599 15.45451495 15.07699706 24 18 C23.67 18.66 23.34 19.32 23 20 C14.95325299 19.44505193 10.70014775 17.03449348 5.25 11 C2.19688447 7.47929019 0 4.77191157 0 0 Z " fill="#2F3130" transform="translate(776,273)"/>
<path d="M0 0 C0.99 0 1.98 0 3 0 C1.68 8.25 0.36 16.5 -1 25 C-1.99 24.34 -2.98 23.68 -4 23 C-3.34 17.39 -2.68 11.78 -2 6 C-4.64 6 -7.28 6 -10 6 C-10 5.67 -10 5.34 -10 5 C-8.72125 4.9175 -7.4425 4.835 -6.125 4.75 C-3.94666582 4.54130069 -3.94666582 4.54130069 -2 4 C-0.4100567 2.07935207 -0.4100567 2.07935207 0 0 Z " fill="#41423C" transform="translate(741,276)"/>
<path d="M0 0 C2.4375 0.75 2.4375 0.75 4.4375 2.75 C4.10778521 6.04714793 3.8148161 7.3726839 1.4375 9.75 C-2.1875 9.375 -2.1875 9.375 -5.5625 8.75 C-5.75 5.375 -5.75 5.375 -5.5625 1.75 C-2.5625 -0.25 -2.5625 -0.25 0 0 Z " fill="#292C30" transform="translate(828.5625,241.25)"/>
<path d="M0 0 C3.5625 0.1875 3.5625 0.1875 5.5625 2.1875 C5.23278521 5.48464793 4.9398161 6.8101839 2.5625 9.1875 C-0.30762296 9.55546448 -1.84524618 9.56259409 -4.3125 8 C-5.4375 6.1875 -5.4375 6.1875 -5.1875 3.5625 C-4.03548686 -0.08554162 -4.05612355 0.2212431 0 0 Z " fill="#262A2E" transform="translate(772.4375,240.8125)"/>
<path d="M0 0 C0.66 0.33 1.32 0.66 2 1 C0.58138379 5.84693871 -1.20921633 9.81382449 -4 14 C-6.25 14.9375 -6.25 14.9375 -8 15 C-6.73147656 11.72298112 -5.38102094 8.48097064 -4 5.25 C-3.67 4.47140625 -3.34 3.6928125 -3 2.890625 C-2 1 -2 1 0 0 Z " fill="#34383B" transform="translate(918,313)"/>
<path d="M0 0 C0.33 0.66 0.66 1.32 1 2 C-0.24066563 3.6321378 -1.49291688 5.25547321 -2.75 6.875 C-3.44609375 7.77992188 -4.1421875 8.68484375 -4.859375 9.6171875 C-6.86566945 11.85047147 -8.24307341 12.91958282 -11 14 C-10.37417301 8.57616611 -6.13845511 4.96136209 -2.1875 1.625 C-1.1046875 0.820625 -1.1046875 0.820625 0 0 Z " fill="#2D3134" transform="translate(826,550)"/>
<path d="M0 0 C0.33 0.66 0.66 1.32 1 2 C-3.60136502 7.53601728 -8.46398272 12.39863498 -14 17 C-14.66 16.67 -15.32 16.34 -16 16 C-10.72 10.72 -5.44 5.44 0 0 Z " fill="#2A2D2B" transform="translate(1014,536)"/>
<path d="M0 0 C-0.46671627 5.41390868 -1.24297811 9.20517932 -4 14 C-4.99 14 -5.98 14 -7 14 C-6.52140759 12.39566191 -6.04210442 10.79153584 -5.5625 9.1875 C-5.29566406 8.29417969 -5.02882813 7.40085937 -4.75390625 6.48046875 C-4.19612127 4.64526945 -3.60655425 2.81966274 -3 1 C-1 0 -1 0 0 0 Z " fill="#2E3135" transform="translate(949,452)"/>
<path d="M0 0 C-0.56373887 3.47263143 -1.60850967 4.91317065 -4.3125 7.125 C-5.20388672 7.87136719 -5.20388672 7.87136719 -6.11328125 8.6328125 C-8.00252656 10.00183084 -9.8865777 11.02026781 -12 12 C-9.8988952 7.2725142 -5.81242959 0 0 0 Z " fill="#282C2F" transform="translate(702,450)"/>
<path d="M0 0 C0.33 0.66 0.66 1.32 1 2 C-3.1196377 3.29243536 -6.66831683 4.26252625 -11 4 C-10.3125 2.0625 -10.3125 2.0625 -9 0 C-5.74641445 -1.11306874 -3.21774622 -1.26411459 0 0 Z " fill="#3E403C" transform="translate(936,582)"/>
<path d="M0 0 C0.66 0.33 1.32 0.66 2 1 C1.01 4.63 0.02 8.26 -1 12 C-1.99 11.67 -2.98 11.34 -4 11 C-3.71890887 9.35232753 -3.42481474 7.70686855 -3.125 6.0625 C-2.96257812 5.14597656 -2.80015625 4.22945313 -2.6328125 3.28515625 C-2.42398437 2.53105469 -2.21515625 1.77695312 -2 1 C-1.34 0.67 -0.68 0.34 0 0 Z " fill="#3A3C3A" transform="translate(1039,486)"/>
<path d="M0 0 C1.18414294 3.55242882 0.69535532 4.69830562 -0.4375 8.1875 C-0.72496094 9.08855469 -1.01242187 9.98960937 -1.30859375 10.91796875 C-1.53675781 11.60503906 -1.76492188 12.29210937 -2 13 C-2.99 13 -3.98 13 -5 13 C-4.4999231 7.89921563 -3.74076891 3.74076891 0 0 Z " fill="#2A2E32" transform="translate(682,477)"/>
<path d="M0 0 C0 4.59978482 -2.68443913 7.48204515 -5.625 10.875 C-7 12 -7 12 -9 12 C-7.60090738 7.54834166 -5.39864635 5.14374788 -2 2 C-1.34 1.34 -0.68 0.68 0 0 Z " fill="#282C2F" transform="translate(844,330)"/>
<path d="M0 0 C0.66 0.33 1.32 0.66 2 1 C0.50521886 4.80489745 -1.69442214 6.66190835 -5 9 C-5.99 9.33 -6.98 9.66 -8 10 C-6.5682479 4.98886765 -4.01554307 3.05530451 0 0 Z " fill="#313538" transform="translate(865,331)"/>
<path d="M0 0 C0.33 0 0.66 0 1 0 C1.05447047 1.41623216 1.09300508 2.83308191 1.125 4.25 C1.14820313 5.03890625 1.17140625 5.8278125 1.1953125 6.640625 C0.9828378 9.20731941 0.28654105 10.7916067 -1 13 C-1.66 12.34 -2.32 11.68 -3 11 C-2.79296875 8.65234375 -2.79296875 8.65234375 -2.1875 5.9375 C-1.99542969 5.03902344 -1.80335938 4.14054687 -1.60546875 3.21484375 C-1 1 -1 1 0 0 Z " fill="#373938" transform="translate(740,288)"/>
<path d="M0 0 C-2.06756277 2.7972908 -3.14440371 3.02692273 -6.6875 3.6875 C-7.780625 3.790625 -8.87375 3.89375 -10 4 C-9.67 3.01 -9.34 2.02 -9 1 C-3.79245283 -1.26415094 -3.79245283 -1.26415094 0 0 Z " fill="#2C2F2D" transform="translate(711,326)"/>
<path d="M0 0 C0.66 0.33 1.32 0.66 2 1 C0.82255415 4.53233755 0.04394359 4.86308075 -3.0625 6.6875 C-3.79597656 7.12449219 -4.52945313 7.56148438 -5.28515625 8.01171875 C-5.85105469 8.33785156 -6.41695312 8.66398437 -7 9 C-5.27845212 5.23511958 -3.00765886 2.84936103 0 0 Z " fill="#25292C" transform="translate(839,294)"/>
<path d="M0 0 C-1.97420135 2.52259061 -2.96745642 2.9929808 -6.1875 3.6875 C-7.5796875 3.8421875 -7.5796875 3.8421875 -9 4 C-8.67 3.01 -8.34 2.02 -8 1 C-2.59770115 -1.29885057 -2.59770115 -1.29885057 0 0 Z " fill="#232728" transform="translate(756,615)"/>
<path d="M0 0 C0.33 0.99 0.66 1.98 1 3 C-0.3125 5.1875 -0.3125 5.1875 -2 7 C-2.66 7 -3.32 7 -4 7 C-3.39816251 4.97954558 -2.72693904 2.97888961 -2 1 C-1.34 0.67 -0.68 0.34 0 0 Z " fill="#202427" transform="translate(1031,509)"/>
<path d="M0 0 C0.33 0.99 0.66 1.98 1 3 C-0.3125 5.1875 -0.3125 5.1875 -2 7 C-2.66 7 -3.32 7 -4 7 C-3.39816251 4.97954558 -2.72693904 2.97888961 -2 1 C-1.34 0.67 -0.68 0.34 0 0 Z " fill="#212427" transform="translate(596,419)"/>
<path d="M0 0 C0.66 0.33 1.32 0.66 2 1 C-0.36292656 3.52588702 -1.66462511 4.88820837 -5 6 C-4.75 4.125 -4.75 4.125 -4 2 C-2.0625 0.6875 -2.0625 0.6875 0 0 Z " fill="#232729" transform="translate(675,339)"/>
<path d="M0 0 C1.65 0 3.3 0 5 0 C4.67 0.99 4.34 1.98 4 3 C2.35 3.33 0.7 3.66 -1 4 C-0.67 2.68 -0.34 1.36 0 0 Z " fill="#353839" transform="translate(743,616)"/>
<path d="M0 0 C0.66 0.33 1.32 0.66 2 1 C2 1.66 2 2.32 2 3 C0.1875 4.0625 0.1875 4.0625 -2 5 C-2.99 4.67 -3.98 4.34 -5 4 C-3.35 2.68 -1.7 1.36 0 0 Z " fill="#222528" transform="translate(785,602)"/>
</svg>
